<?xml version="1.0" encoding="UTF-8" standalone="no"?>
<!-- Created with Inkscape (http://www.inkscape.org/) -->

<svg
   version="1.1"
   id="svg2"
   width="565.69336"
   height="134.09332"
   viewBox="0 0 565.69336 134.09332"
   sodipodi:docname="UA_horiz_cmyk (1).eps"
   xmlns:inkscape="http://www.inkscape.org/namespaces/inkscape"
   xmlns:sodipodi="http://sodipodi.sourceforge.net/DTD/sodipodi-0.dtd"
   xmlns="http://www.w3.org/2000/svg"
   xmlns:svg="http://www.w3.org/2000/svg">
  <defs
     id="defs6" />
  <sodipodi:namedview
     id="namedview4"
     pagecolor="#ffffff"
     bordercolor="#000000"
     borderopacity="0.25"
     inkscape:showpageshadow="2"
     inkscape:pageopacity="0.0"
     inkscape:pagecheckerboard="0"
     inkscape:deskcolor="#d1d1d1" />
  <g
     id="g8"
     inkscape:groupmode="layer"
     inkscape:label="ink_ext_XXXXXX"
     transform="matrix(1.3333333,0,0,-1.3333333,0,134.09333)">
    <g
       id="g10"
       transform="scale(0.1)">
      <path
         d="m 1215.15,569.922 c 0,-16.43 1.44,-28.598 4.41,-36.504 2.85,-7.816 7.76,-14.926 14.57,-21.176 h -87.89 c 6.9,6.25 11.87,13.36 14.69,21.176 2.88,7.906 4.28,20.074 4.28,36.504 v 232.223 h -25.88 c -17.79,0 -32.24,-1.383 -43.26,-4.161 -11.05,-2.808 -19.91,-7.304 -26.48,-13.535 l 15.86,53.399 h 228.84 l -15,-52.481 c -4.77,5.742 -11.02,10 -18.75,12.719 -7.83,2.73 -17.59,4.059 -29.38,4.059 h -36.01 v -232.223 0"
         style="fill:#0e264f;fill-opacity:1;fill-rule:nonzero;stroke:none"
         id="path12" />
      <path
         d="m 1388.9,563.262 c 0,-14.59 1.31,-25.469 3.79,-32.5 2.56,-7.035 6.91,-13.364 13.03,-18.91 h -78.4 c 5.99,5.546 10.29,11.875 12.89,18.91 2.58,7.031 3.92,17.91 3.92,32.5 v 188.023 c 0,14.668 -1.34,25.473 -3.92,32.461 -2.6,6.973 -6.9,13.184 -12.89,18.613 h 78.4 c -6.12,-5.429 -10.47,-11.64 -13.03,-18.613 -2.48,-6.988 -3.79,-17.793 -3.79,-32.461 v -65.058 h 153.98 v 65.058 c 0,14.668 -1.34,25.473 -3.84,32.461 -2.54,6.973 -6.86,13.184 -13.03,18.613 h 78.42 c -6,-5.429 -10.3,-11.64 -12.89,-18.613 -2.58,-6.988 -3.89,-17.793 -3.89,-32.461 V 563.262 c 0,-14.59 1.25,-25.469 3.79,-32.5 2.52,-7.035 6.91,-13.364 12.99,-18.91 h -78.42 c 6.17,5.546 10.49,11.875 13.03,18.91 2.5,7.031 3.84,17.91 3.84,32.5 v 89.492 H 1388.9 v -89.492 0"
         style="fill:#0e264f;fill-opacity:1;fill-rule:nonzero;stroke:none"
         id="path14" />
      <path
         d="m 1642.49,511.852 c 6.02,5.546 10.3,11.875 12.89,18.91 2.61,7.031 3.91,17.926 3.91,32.554 v 187.793 c 0,14.692 -1.3,25.547 -3.91,32.563 -2.59,7.008 -6.87,13.219 -12.89,18.687 h 156.55 v -45.855 c -6.95,5.664 -14.68,9.723 -23.03,12.262 -8.36,2.519 -18.06,3.789 -28.95,3.789 -5.66,0 -12,-0.426 -18.95,-1.367 -7.04,-0.895 -14.84,-2.325 -23.68,-4.122 V 685.23 h 70.25 v -42.222 c -3.37,3.902 -7.82,6.715 -13.44,8.316 -5.63,1.582 -15.99,2.422 -30.95,2.422 h -25.86 V 549.59 c 10.86,-1.645 20.68,-2.856 29.47,-3.695 8.79,-0.86 16.35,-1.266 22.8,-1.266 14.58,0 28.29,1.969 41.18,5.918 12.89,3.941 25.63,10.039 38.09,18.141 l -20,-56.836 h -173.48 v 0"
         style="fill:#0e264f;fill-opacity:1;fill-rule:nonzero;stroke:none"
         id="path16" />
      <path
         d="m 2201.24,512.359 v 24.532 c -15.63,-11.328 -31.33,-19.801 -47.11,-25.348 -15.86,-5.551 -32,-8.402 -48.2,-8.402 -18.57,0 -35.16,3.164 -49.69,9.336 -14.54,6.211 -27.11,15.507 -37.67,28.007 -8.28,9.77 -14.21,21.172 -17.8,34.161 -3.59,12.992 -5.39,30.449 -5.39,52.367 V 779.43 c 0,16.332 -1.48,28.418 -4.22,36.172 -2.89,7.793 -7.62,14.707 -14.37,20.785 h 87.11 c -6.68,-6.078 -11.49,-12.992 -14.27,-20.785 -2.84,-7.754 -4.22,-19.84 -4.22,-36.172 V 637.051 c 0,-22.231 1.05,-38.75 3.16,-49.496 2.11,-10.703 5.79,-19.317 10.82,-25.664 6.1,-7.618 14.22,-13.336 24.47,-17.188 10.1,-3.785 22.21,-5.683 36.35,-5.683 11.58,0 22.7,1.742 32.78,5.293 10.12,3.441 18.99,8.554 26.6,15.253 6.8,5.586 11.57,12.872 14.54,21.821 2.85,8.941 4.33,21.109 4.33,36.519 V 779.43 c 0,16.972 -1.4,29.218 -4.18,36.781 -2.81,7.535 -7.58,14.258 -14.37,20.176 h 87.81 c -6.84,-5.918 -11.64,-12.992 -14.57,-21.25 -2.89,-8.246 -4.34,-20.141 -4.34,-35.707 V 569.629 c 0,-16.328 1.45,-28.383 4.34,-36.211 2.93,-7.855 7.73,-14.848 14.57,-21.059 h -66.48 v 0"
         style="fill:#0e264f;fill-opacity:1;fill-rule:nonzero;stroke:none"
         id="path18" />
      <path
         d="m 2586.39,802.359 c -6.21,-5.429 -10.54,-11.64 -13.04,-18.613 -2.54,-6.973 -3.79,-17.773 -3.79,-32.422 v -246.23 c -9.97,0.312 -19.5,3.554 -28.48,9.844 -8.95,6.289 -20.2,18.242 -33.75,35.8 L 2359.59,739.844 V 563.316 c 0,-15.214 1.25,-26.226 3.75,-33.101 2.43,-6.797 6.72,-12.973 12.78,-18.363 h -64.96 c 6.05,5.546 10.39,11.875 12.93,18.91 2.61,7.031 3.9,17.91 3.9,32.554 v 188.008 c 0,14.649 -1.29,25.449 -3.9,32.422 -2.54,6.973 -6.88,13.184 -12.93,18.613 h 58.12 l 169.3,-218.164 v 167.129 c 0,14.649 -1.33,25.449 -3.87,32.422 -2.62,6.973 -6.91,13.184 -12.93,18.613 h 64.61 v 0"
         style="fill:#0e264f;fill-opacity:1;fill-rule:nonzero;stroke:none"
         id="path20" />
      <path
         d="m 2694.83,563.316 c 0,-14.644 1.25,-25.523 3.79,-32.554 2.54,-7.035 6.83,-13.364 13.01,-18.91 h -78.44 c 6.17,5.546 10.47,11.875 13.05,18.91 2.5,7.031 3.75,17.91 3.75,32.554 v 188.008 c 0,14.649 -1.25,25.449 -3.75,32.422 -2.58,6.973 -6.88,13.184 -13.05,18.613 h 78.44 c -6.18,-5.429 -10.47,-11.64 -13.01,-18.613 -2.54,-6.973 -3.79,-17.773 -3.79,-32.422 v -188.008 0"
         style="fill:#0e264f;fill-opacity:1;fill-rule:nonzero;stroke:none"
         id="path22" />
      <path
         d="m 2877.72,504.469 c -12.19,3.207 -22.66,10.199 -31.25,21.054 -8.67,10.782 -16.64,26.938 -23.94,48.403 l -57.93,169.215 c -4.69,13.988 -9.15,25.351 -13.29,34.121 -4.14,8.793 -8.9,17.168 -14.06,25.097 l 59.14,-0.191 c 0.28,-4.746 0.71,-9.16 1.49,-13.188 0.62,-4.042 1.48,-7.886 2.61,-11.519 l 69.65,-207.895 65.9,173.164 c 1.91,5.317 3.48,10.665 4.65,16.036 1.13,5.312 1.76,10.277 1.76,14.746 0,3.871 -1.17,8.031 -3.32,12.422 -2.23,4.394 -5.86,9.882 -11.1,16.425 h 65.59 l -115.9,-297.89 v 0"
         style="fill:#0e264f;fill-opacity:1;fill-rule:nonzero;stroke:none"
         id="path24" />
      <path
         d="m 3013.58,511.852 c 6.02,5.546 10.39,11.875 12.93,18.91 2.62,7.031 3.94,17.926 3.94,32.554 v 187.793 c 0,14.692 -1.32,25.547 -3.94,32.563 -2.54,7.008 -6.91,13.219 -12.93,18.687 h 156.56 v -45.855 c -6.95,5.664 -14.61,9.723 -23.01,12.262 -8.39,2.519 -18,3.789 -29.02,3.789 -5.58,0 -11.91,-0.426 -18.83,-1.367 -7.07,-0.895 -14.96,-2.325 -23.71,-4.122 V 685.23 h 70.2 v -42.222 c -3.28,3.902 -7.82,6.715 -13.44,8.316 -5.63,1.582 -15.94,2.422 -30.94,2.422 h -25.82 V 549.59 c 10.9,-1.645 20.67,-2.856 29.46,-3.695 8.78,-0.86 16.36,-1.266 22.85,-1.266 14.49,0 28.2,1.969 41.09,5.918 12.89,3.941 25.63,10.039 38.13,18.141 l -20,-56.836 h -173.52 v 0"
         style="fill:#0e264f;fill-opacity:1;fill-rule:nonzero;stroke:none"
         id="path26" />
      <path
         d="m 3288.58,563.262 c 0,-14.59 1.25,-25.469 3.83,-32.5 2.5,-7.035 6.83,-13.364 12.97,-18.91 h -78.44 c 6.01,5.546 10.31,11.875 12.93,18.91 2.62,7.031 3.87,17.91 3.87,32.5 v 187.965 c 0,14.652 -1.25,25.492 -3.87,32.484 -2.62,6.988 -6.92,13.199 -12.93,18.648 H 3326 c 28.2,0 51.02,-6.836 68.36,-20.488 17.34,-13.711 26.07,-31.484 26.07,-53.359 0,-15.918 -5.21,-29.957 -15.68,-42.047 -10.47,-12.168 -26.64,-22.832 -48.59,-32.055 l 74.35,-100.566 c 4.32,-5.977 9.67,-12.364 15.82,-19.024 6.16,-6.718 13.28,-13.672 21.16,-20.894 l -22.19,-2.074 h -3.5 c -10.39,0 -20.56,2.738 -30.49,8.363 -9.88,5.547 -18.24,13.238 -25.07,22.965 l -85.16,119.242 c 25.39,5.758 43.83,13.633 55.62,23.59 11.72,9.98 17.54,22.812 17.54,38.633 0,14.652 -4.96,26.582 -15.07,35.785 -10.04,9.238 -23.25,13.828 -39.54,13.828 -3.71,0 -8.16,-0.317 -13.39,-0.918 -5.2,-0.664 -11.1,-1.606 -17.66,-2.856 v -207.222 0"
         style="fill:#0e264f;fill-opacity:1;fill-rule:nonzero;stroke:none"
         id="path28" />
      <path
         d="m 3481.41,518.34 -13.61,52.73 c 16.56,-11.289 32.75,-19.707 48.28,-25.175 15.72,-5.528 31.21,-8.301 46.58,-8.301 19.61,0 35.35,4.277 47.33,12.875 11.87,8.574 17.85,19.707 17.85,33.355 0,3.906 -0.61,7.832 -1.86,11.739 -1.21,3.906 -2.93,7.597 -5.37,11.054 -5.14,7.973 -22.64,19.356 -52.42,34.121 -7.5,3.633 -13.36,6.504 -17.5,8.575 -27.81,14.242 -46.95,27.382 -57.25,39.359 -10.39,11.969 -15.56,26.25 -15.56,42.691 0,23.598 9.53,42.325 28.45,56.192 18.89,13.886 44.91,20.84 77.85,20.84 9.48,0 19.87,-0.625 31.29,-1.915 11.39,-1.226 23.75,-3.179 37.11,-5.839 v -48.828 c -11.81,9.14 -23.67,15.902 -35.64,20.39 -11.95,4.477 -24.36,6.723 -37.25,6.723 -16.33,0 -29.47,-3.539 -39.47,-10.688 -9.92,-7.09 -14.92,-16.402 -14.92,-27.832 0,-10.215 3.96,-19.234 11.81,-27.051 7.72,-7.792 25.26,-18.281 52.5,-31.406 1.55,-0.703 3.91,-1.797 7.07,-3.34 23.01,-10.722 40.22,-20.679 51.68,-29.707 8.44,-6.679 15.08,-14.859 19.79,-24.453 4.82,-9.629 7.11,-19.883 7.11,-30.801 0,-24.96 -11.21,-46.113 -33.75,-63.511 -22.5,-17.344 -50.57,-26.02 -84.36,-26.02 -10.86,0 -22.46,1.211 -34.96,3.559 -12.58,2.379 -26.11,5.933 -40.78,10.664 v 0"
         style="fill:#0e264f;fill-opacity:1;fill-rule:nonzero;stroke:none"
         id="path30" />
      <path
         d="m 3775.77,563.316 c 0,-14.644 1.29,-25.523 3.84,-32.554 2.54,-7.035 6.86,-13.364 13.05,-18.91 h -78.53 c 6.17,5.546 10.56,11.875 13.06,18.91 2.54,7.031 3.83,17.91 3.83,32.554 v 188.008 c 0,14.649 -1.29,25.449 -3.83,32.422 -2.5,6.973 -6.89,13.184 -13.06,18.613 h 78.53 c -6.19,-5.429 -10.51,-11.64 -13.05,-18.613 -2.55,-6.973 -3.84,-17.773 -3.84,-32.422 v -188.008 0"
         style="fill:#0e264f;fill-opacity:1;fill-rule:nonzero;stroke:none"
         id="path32" />
      <path
         d="m 2173.5,417.793 25.86,-63.051 98.28,-246.179 c 10.86,-27.3052 19.34,-54.2192 46.25,-67.9692 v -1.4844 h -96.87 v 1.4844 c 23.2,10.4687 19.37,15.7031 6.68,49.2187 l -25.51,67.6645 h -119.92 l -24.53,-67.6645 c -9.97,-26.8359 -13.25,-40.6641 9.4,-49.2187 v -1.4844 h -86.9 v 1.4844 c 27.33,13.75 35.46,40.664 45.78,67.9692 L 2173.5,415.84 v 1.953 z m -5.47,-103.906 -47.39,-120.942 h 93.76 l -46.37,120.942 v 0"
         style="fill:#0e264f;fill-opacity:1;fill-rule:nonzero;stroke:none"
         id="path34" />
      <path
         d="m 1564.99,32.0781 c -21.88,0 -42.43,3.5157 -61.72,10.625 -19.27,7.0703 -35.86,17.1875 -49.7,30.3907 -14.61,13.9062 -25.82,30.3902 -33.75,49.2652 -7.89,18.946 -11.78,38.789 -11.78,59.571 0,16.332 2.5,32.148 7.5,47.5 5.04,15.312 12.34,29.687 21.95,42.968 14.92,20.469 33.44,36.211 55.46,47.192 22.04,11.09 46.09,16.558 72.04,16.558 22.23,0 43.05,-3.511 62.3,-10.585 19.34,-6.993 35.85,-17.145 49.73,-30.426 14.84,-13.989 26.12,-30.434 33.99,-49.496 7.85,-19.024 11.74,-39.571 11.74,-61.598 0,-20.238 -4.4,-40.039 -13.15,-59.492 -8.83,-19.426 -21.17,-36.5354 -37.11,-51.4572 -14.27,-13.5157 -30.6,-23.6719 -48.83,-30.625 -18.28,-6.9141 -37.81,-10.3907 -58.67,-10.3907 z m 1.55,273.2889 c -31.78,0 -58.11,-11.094 -78.75,-33.238 -20.69,-22.191 -31,-50.512 -31,-84.961 0,-35.59 10.23,-65.078 30.7,-88.6055 20.42,-23.5156 45.98,-35.2344 76.64,-35.2344 31.68,0 57.89,11.0938 78.58,33.3594 20.6,22.2385 30.86,50.6325 30.86,85.2425 0,35.625 -10.14,65.039 -30.62,88.363 -20.46,23.434 -45.93,35.074 -76.41,35.074 v 0"
         style="fill:#0e264f;fill-opacity:1;fill-rule:nonzero;stroke:none"
         id="path36" />
      <path
         d="m 1808.27,90.3594 c 0,-14.6875 1.2,-25.4688 3.75,-32.5 2.57,-6.9531 6.94,-13.2813 13.13,-18.7891 h -78.49 c 6.05,5.5078 10.36,11.836 12.94,18.7891 2.58,7.0312 3.91,17.8125 3.91,32.5 V 278.18 c 0,14.687 -1.33,25.547 -3.91,32.582 -2.58,6.953 -6.89,13.203 -12.94,18.668 h 156.77 v -45.86 c -6.97,5.703 -14.62,9.77 -22.98,12.348 -8.36,2.5 -18.09,3.75 -29.14,3.75 -5.7,0 -11.98,-0.473 -19.02,-1.367 -7.04,-0.903 -14.88,-2.309 -23.68,-4.184 V 212.32 h 70.48 v -42.183 c -3.32,3.906 -7.81,6.715 -13.48,8.281 -5.66,1.637 -16.09,2.422 -31.18,2.422 h -26.16 v -90.4806 0"
         style="fill:#0e264f;fill-opacity:1;fill-rule:nonzero;stroke:none"
         id="path38" />
      <path
         d="m 2426.51,90.2813 c 0,-14.6094 1.29,-25.4297 3.83,-32.4219 2.54,-6.9531 6.87,-13.2813 13,-18.7891 h -78.43 c 6.01,5.5078 10.35,11.836 12.93,18.7891 2.61,6.9922 3.9,17.8125 3.9,32.4219 V 278.34 c 0,14.683 -1.29,25.465 -3.9,32.5 -2.58,6.953 -6.92,13.203 -12.93,18.59 h 99.02 c 28.24,0 51.02,-6.793 68.44,-20.465 17.3,-13.672 25.97,-31.488 25.97,-53.363 0,-15.899 -5.15,-29.922 -15.62,-42.071 -10.43,-12.144 -26.64,-22.769 -48.59,-31.988 l 74.29,-100.6367 c 4.42,-6.0157 9.65,-12.3438 15.9,-18.9844 6.17,-6.6406 13.17,-13.5938 21.17,-20.7813 l -22.22,-2.0703 h -3.52 c -10.43,0 -20.55,2.7344 -30.43,8.3203 -9.92,5.5078 -18.28,13.1641 -25.12,22.8125 l -85.15,119.3479 c 25.31,5.742 43.86,13.551 55.58,23.551 11.68,10 17.58,22.851 17.58,38.593 0,14.692 -5.04,26.645 -15.12,35.821 -10,9.179 -23.2,13.871 -39.53,13.871 -3.71,0 -8.2,-0.395 -13.36,-1.02 -5.19,-0.586 -11.09,-1.562 -17.69,-2.812 v -207.2737 0"
         style="fill:#0e264f;fill-opacity:1;fill-rule:nonzero;stroke:none"
         id="path40" />
      <path
         d="m 2691.63,90.3594 c 0,-14.6875 1.21,-25.5078 3.75,-32.5 2.5,-6.9531 6.87,-13.2813 13.04,-18.7891 h -78.43 c 6.09,5.5078 10.43,11.836 12.96,18.7891 2.54,6.9922 3.83,17.8125 3.83,32.5 V 278.418 c 0,14.684 -1.29,25.426 -3.83,32.422 -2.53,6.953 -6.87,13.203 -12.96,18.59 h 78.43 c -6.17,-5.387 -10.54,-11.637 -13.04,-18.59 -2.54,-6.996 -3.75,-17.738 -3.75,-32.422 v -188.0586 0"
         style="fill:#0e264f;fill-opacity:1;fill-rule:nonzero;stroke:none"
         id="path42" />
      <path
         d="M 2981.82,93.4063 2961,39.0703 H 2737.88 L 2890.14,292.09 c -11.33,2.887 -22.11,5.078 -32.19,6.48 -10.11,1.407 -19.45,2.11 -28.12,2.11 -12.62,0 -24.84,-1.563 -36.56,-4.762 -11.72,-3.125 -23.67,-8.125 -35.9,-15 l 19.73,48.512 h 185.54 L 2810.49,76.5313 c 16.88,-1.9532 31.06,-3.3594 42.66,-4.2188 11.45,-0.8594 21.45,-1.3281 29.84,-1.3281 19.73,0 37.86,1.875 54.14,5.625 16.29,3.75 31.18,9.3359 44.69,16.7969 v 0"
         style="fill:#0e264f;fill-opacity:1;fill-rule:nonzero;stroke:none"
         id="path44" />
      <path
         d="m 3146.63,32.0781 c -21.92,0 -42.43,3.5157 -61.72,10.625 -19.34,7.0703 -35.9,17.1875 -49.77,30.3907 -14.53,13.9062 -25.78,30.3902 -33.67,49.2652 -7.89,18.946 -11.8,38.789 -11.8,59.571 0,16.332 2.43,32.148 7.5,47.5 4.93,15.312 12.27,29.687 21.88,42.968 15,20.469 33.59,36.211 55.55,47.192 22.03,11.09 46.05,16.558 72.03,16.558 22.26,0 42.97,-3.511 62.26,-10.585 19.3,-6.993 35.86,-17.145 49.77,-30.426 14.84,-13.989 26.09,-30.434 33.98,-49.496 7.81,-19.024 11.72,-39.571 11.72,-61.598 0,-20.238 -4.37,-40.039 -13.2,-59.492 -8.75,-19.426 -21.17,-36.5354 -37.03,-51.4572 -14.3,-13.5157 -30.59,-23.6719 -48.83,-30.625 -18.28,-6.9141 -37.89,-10.3907 -58.67,-10.3907 z m 1.56,273.2889 c -31.88,0 -58.2,-11.094 -78.83,-33.238 -20.62,-22.191 -31.01,-50.512 -31.01,-84.961 0,-35.59 10.31,-65.078 30.74,-88.6055 20.43,-23.5156 45.97,-35.2344 76.6,-35.2344 31.72,0 57.89,11.0938 78.59,33.3594 20.63,22.2385 30.94,50.6325 30.94,85.2425 0,35.625 -10.19,65.039 -30.62,88.363 -20.47,23.434 -45.94,35.074 -76.41,35.074 v 0"
         style="fill:#0e264f;fill-opacity:1;fill-rule:nonzero;stroke:none"
         id="path46" />
      <path
         d="m 3602.8,329.43 c -6.21,-5.387 -10.53,-11.637 -13.03,-18.59 -2.58,-6.996 -3.79,-17.738 -3.79,-32.422 V 32.3906 c -10.04,0.3125 -19.51,3.5547 -28.49,9.7657 -8.97,6.25 -20.2,18.125 -33.75,35.625 L 3376.04,266.93 V 90.3594 c 0,-15.2344 1.25,-26.25 3.71,-33.0078 2.42,-6.7578 6.68,-12.8907 12.74,-18.2813 h -64.89 c 5.98,5.5078 10.28,11.836 12.89,18.7891 2.62,6.9922 3.95,17.8125 3.95,32.5 V 278.418 c 0,14.684 -1.33,25.426 -3.95,32.422 -2.61,6.953 -6.91,13.203 -12.89,18.59 h 58.01 l 169.43,-218.164 v 167.152 c 0,14.684 -1.38,25.426 -3.96,32.422 -2.6,6.953 -6.9,13.203 -12.93,18.59 h 64.65 v 0"
         style="fill:#0e264f;fill-opacity:1;fill-rule:nonzero;stroke:none"
         id="path48" />
      <path
         d="m 3669.69,78.2109 c -1.33,-2.9296 -2.28,-5.9765 -2.85,-9.1015 -0.6,-3.125 -0.86,-6.3281 -0.86,-9.6485 0,-2.7734 0.88,-5.8593 2.89,-9.1406 2.07,-3.3203 5.22,-7.0703 9.65,-11.25 h -67.58 c 5.57,3.8672 10.65,9.1797 15.1,15.9766 4.47,6.8359 9.04,16.0937 13.73,27.9687 l 80.53,207.3514 c 1.64,3.906 2.89,7.735 3.71,11.485 0.82,3.75 1.21,7.113 1.21,10 0,3.402 -0.78,6.488 -2.29,9.218 -1.6,2.817 -4.23,5.586 -7.77,8.36 h 65.1 l 91.07,-243.4847 c 4.22,-11.0156 8.83,-19.9609 13.71,-26.8359 4.95,-6.836 11.2,-13.5547 18.87,-20.0391 h -82.07 l 1.04,1.0547 c 7.59,8.0469 11.34,13.9063 11.34,17.6563 0,4.4531 -1.64,10.9375 -4.92,19.6093 -0.47,1.4063 -0.78,2.4219 -1.03,3.125 l -24.53,67.1994 h -106.72 l -27.33,-69.5041 z m 38.67,98.6411 h 84.36 l -40.45,112.265 -43.91,-112.265 v 0"
         style="fill:#0e264f;fill-opacity:1;fill-rule:nonzero;stroke:none"
         id="path50" />
      <path
         d="m 4054.01,802.809 74.51,-126.637 50.06,82.461 c 3.05,5.039 5.39,9.586 6.97,13.726 1.51,4.121 2.33,7.637 2.33,10.61 0,3.336 -0.98,6.621 -2.97,9.879 -2.03,3.324 -5,6.621 -9.22,9.961 h 66.99 L 4144.4,642.887 V 563.57 c 0,-14.668 1.29,-25.547 3.87,-32.578 2.67,-7.105 6.95,-13.355 12.97,-18.902 h -78.91 c 6.19,5.547 10.55,11.797 13.05,18.902 2.5,7.031 3.84,17.91 3.84,32.578 l 0.08,80.157 -67.32,110.824 c -6.76,9.918 -11.76,11.422 -18.28,13.765 -6.94,2.446 -18.62,2.676 -29.26,2.676 h -32.11 V 563.531 c 0,-14.629 1.25,-25.508 3.91,-32.539 2.63,-7.105 6.87,-13.355 12.98,-18.902 h -78.53 c 6.11,5.547 10.47,11.797 13.05,18.902 2.46,7.031 3.71,17.91 3.71,32.539 v 207.461 h -22.97 c -15.94,0 -28.87,-1.23 -38.71,-3.769 -9.91,-2.5 -17.8,-6.563 -23.75,-12.129 l 14.27,47.715 h 217.72 v 0"
         style="fill:#0e264f;fill-opacity:1;fill-rule:nonzero;stroke:none"
         id="path52" />
      <path
         d="M 877.688,1005.64 V 679.035 l -33.079,0.156 131.844,-352.203 113.037,-0.144 V 0 H 0 v 326.402 l 112.238,-0.144 133.004,353.203 -33.793,-0.078 0.133,326.357 666.106,-0.1 v 0"
         style="fill:#ffffff;fill-opacity:1;fill-rule:nonzero;stroke:none"
         id="path54" />
      <path
         d="m 544.75,884.543 h 210.418 v -84.16 H 667.754 L 897.59,208.016 h 67.969 V 120.879 H 680.703 v 84.773 H 600.738 V 39.4102 H 1050.34 V 287.293 L 949.387,287.117 787.539,718.586 h 50.828 V 966.34 H 544.75 v 0 H 251.129 V 718.586 h 50.848 L 140.121,287.664 39.1563,287.293 V 39.4102 H 488.785 V 205.652 H 408.793 V 120.879 H 123.941 v 87.137 h 67.977 L 421.742,800.383 H 334.34 v 84.16 h 210.41"
         style="fill:#0e264f;fill-opacity:1;fill-rule:nonzero;stroke:none"
         id="path56" />
      <path
         d="m 1139.32,84.9961 h 10.24 c 3.55,0 6.15,0.625 7.79,1.8945 1.65,1.2696 2.46,3.2617 2.46,5.9766 0,2.3867 -0.81,4.1211 -2.46,5.2539 -1.64,1.1133 -4.24,1.6836 -7.79,1.6836 h -10.24 v -14.8086 0 z m -7.54,20.9219 h 19.25 c 5.2,0 9.26,-1.156 12.22,-3.441 2.94,-2.301 4.42,-5.5082 4.42,-9.5903 0,-4.414 -1.48,-7.9258 -4.44,-10.4492 -2.21,-1.875 -5.04,-3.0664 -8.51,-3.5352 l 13.82,-21.0351 h -4.36 -4.39 l -12.44,20.7656 -8.03,-0.039 V 57.8672 h -3.77 -3.77 v 48.0508 0 z m 42.53,0.484 c -6.55,6.684 -14.61,10.024 -24.14,10.024 -9.52,0 -17.54,-3.34 -24.1,-10.024 -6.57,-6.6793 -9.83,-14.859 -9.83,-24.5309 0,-9.668 3.26,-17.8516 9.83,-24.5117 6.56,-6.6602 14.58,-9.9766 24.1,-9.9766 9.5,0 17.54,3.3164 24.12,9.9766 6.56,6.6601 9.86,14.8437 9.86,24.5117 0,9.6719 -3.28,17.8516 -9.84,24.5309 v 0 z m 5.98,5 c 8.22,-8.023 12.32,-17.8707 12.32,-29.5309 0,-11.6172 -4.09,-21.4414 -12.29,-29.4883 -8.21,-8.0312 -18.24,-12.0351 -30.15,-12.0351 -11.89,0 -21.91,4.0039 -30.13,12.0351 -8.17,8.0469 -12.27,17.8711 -12.27,29.4883 0,11.6602 4.11,21.5079 12.3,29.5309 8.23,8.047 18.25,12.051 30.1,12.051 11.87,0 21.91,-4.004 30.12,-12.051 v 0 0"
         style="fill:#0e264f;fill-opacity:1;fill-rule:nonzero;stroke:none"
         id="path58" />
      <path
         d="m 544.355,437.43 h 82.208 L 544.543,649.699 462.531,437.43 h 81.824 v 0 z m 0.188,446.351 233.359,-605.101 c 0,0 29.903,-73.633 78.457,-73.633 H 686.453 c 0,0 8.527,-1.25 17.035,12.93 4.871,8.086 0.758,20.234 0.758,20.234 L 651.711,373.289 H 544.543 437.824 L 385.203,238.211 c 0,0 -4.012,-12.148 0.844,-20.234 8.476,-14.18 16.98,-12.93 16.98,-12.93 h -169.89 c 48.535,0 78.457,73.633 78.457,73.633 l 232.949,605.101"
         style="fill:#be1a34;fill-opacity:1;fill-rule:nonzero;stroke:none"
         id="path60" />
    </g>
  </g>
</svg>
