<?xml version="1.0" encoding="UTF-8" standalone="no"?>
<svg
   width="326.57031pt"
   height="58.863281pt"
   viewBox="0 0 326.57031 58.863281"
   version="1.1"
   id="svg32"
   sodipodi:docname="asu.svg"
   inkscape:version="1.3.2 (091e20e, 2023-11-25)"
   xmlns:inkscape="http://www.inkscape.org/namespaces/inkscape"
   xmlns:sodipodi="http://sodipodi.sourceforge.net/DTD/sodipodi-0.dtd"
   xmlns="http://www.w3.org/2000/svg"
   xmlns:svg="http://www.w3.org/2000/svg">
  <defs
     id="defs32" />
  <sodipodi:namedview
     id="namedview32"
     pagecolor="#ffffff"
     bordercolor="#000000"
     borderopacity="0.25"
     inkscape:showpageshadow="2"
     inkscape:pageopacity="0.0"
     inkscape:pagecheckerboard="0"
     inkscape:deskcolor="#d1d1d1"
     inkscape:document-units="pt"
     inkscape:zoom="0.92725653"
     inkscape:cx="360.74159"
     inkscape:cy="-455.64521"
     inkscape:window-width="1392"
     inkscape:window-height="1212"
     inkscape:window-x="0"
     inkscape:window-y="25"
     inkscape:window-maximized="0"
     inkscape:current-layer="svg32" />
  <g
     id="surface1"
     transform="translate(-26.425781,-762.66797)">
    <path
       style="fill:#8a0a3a;fill-opacity:1;fill-rule:nonzero;stroke:none"
       d="m 172.19141,768.58594 c -0.28907,1.15234 -0.60938,2.33593 -0.92969,3.48828 -0.48047,1.69531 -1.34375,4.35156 -1.85547,6.04687 h 5.72656 z m 3.03906,-5.375 8.32031,22.58984 h -6.01562 l -1.1211,-3.61328 h -8.32031 l -1.12109,3.61328 h -6.01563 l 8.38672,-22.58984 h 5.88672"
       id="path1" />
    <path
       style="fill:#8a0a3a;fill-opacity:1;fill-rule:nonzero;stroke:none"
       d="m 189.60547,770.82812 c 1.08594,-0.92968 2.27344,-1.66406 4.83203,-1.92187 v 4.35156 l -1.63281,0.25781 c -2.36719,0.41407 -3.07032,0.76563 -3.07032,2.87891 v 9.40625 h -4.92968 v -16.73437 h 4.80078 v 1.76171"
       id="path2" />
    <path
       style="fill:#8a0a3a;fill-opacity:1;fill-rule:nonzero;stroke:none"
       d="m 196.13281,769.06641 h 4.86328 v 16.73437 h -4.86328 z m 0,-5.88672 h 4.86328 v 3.80859 h -4.86328 v -3.80859"
       id="path3" />
    <path
       style="fill:#8a0a3a;fill-opacity:1;fill-rule:nonzero;stroke:none"
       d="m 204.00391,769.09766 h 14.30468 v 3.77734 l -8.89453,9.08594 h 8.89453 v 3.83984 h -15.26172 v -3.71094 l 9.02344,-9.21484 h -8.0664 v -3.77734"
       id="path4" />
    <path
       style="fill:#8a0a3a;fill-opacity:1;fill-rule:nonzero;stroke:none"
       d="m 224.99609,774.12109 c -0.60547,0.96094 -0.83203,2.11328 -0.83203,3.26563 0,2.65625 1.28125,4.99219 4.03125,4.99219 2.65625,0 3.96875,-2.14454 3.96875,-4.76954 0,-1.85546 -0.44922,-3.29296 -1.375,-4.1914 -1.02344,-0.95703 -2.17578,-0.99219 -2.88281,-0.92578 -1.40625,0.0937 -2.23828,0.57422 -2.91016,1.6289 z m 12.16016,3.29688 c 0,4.22656 -2.43359,8.86328 -8.96094,8.86328 -4.70312,0 -8.99219,-2.6875 -8.99219,-8.86328 0,-5.11719 3.23438,-9.1836 9.63282,-8.83203 6.8164,0.38672 8.32031,5.79297 8.32031,8.83203"
       id="path5" />
    <path
       style="fill:#8a0a3a;fill-opacity:1;fill-rule:nonzero;stroke:none"
       d="m 243.78125,770.60156 c 0.48047,-0.51172 0.80078,-0.89453 1.66406,-1.30859 0.76563,-0.32031 1.85547,-0.60938 3.03906,-0.60938 0.99219,0 2.11329,0.19141 2.97657,0.67188 1.75781,0.92578 2.20703,2.42969 2.20703,5.02344 v 11.42187 h -4.89453 v -9.40625 c 0,-1.50391 -0.0352,-2.04687 -0.22657,-2.49609 -0.38281,-0.89453 -1.24609,-1.28125 -2.20703,-1.28125 -2.58984,0 -2.58984,2.08203 -2.58984,4.16015 v 9.02344 h -4.92969 v -16.66797 h 4.96094 v 1.46875"
       id="path6" />
    <path
       style="fill:#8a0a3a;fill-opacity:1;fill-rule:nonzero;stroke:none"
       d="m 262.33984,778.85937 c -0.83203,0.32032 -2.10937,0.80079 -2.10937,2.07813 0,0.80078 0.70312,1.69531 1.85547,1.69531 0.60547,0 1.18359,-0.22265 1.69531,-0.54297 1.62891,-1.02343 1.69531,-2.55859 1.72656,-4.28906 z m -6.23828,-5.02343 c 0.0937,-1.15235 0.25391,-2.52735 1.75781,-3.71094 1.53516,-1.21875 3.51954,-1.47266 5.47266,-1.47266 2.04688,0 7.00781,0.48047 7.00781,4.80078 v 9.72657 c 0,1.78906 0.0977,2.04687 0.48047,2.62109 h -4.83203 v -1.53516 c -1.25,0.92969 -2.65625,1.98438 -5.12109,1.98438 -3.83985,0 -5.47266,-2.75 -5.47266,-5.08594 0,-2.6914 2.14453,-4.22656 3.52344,-4.80078 1.34375,-0.57812 4.51172,-1.15234 6.58984,-1.53516 v -0.89843 c -0.0625,-0.76563 -0.1289,-2.04688 -1.88672,-2.04688 -2.17578,0 -2.46484,1.34375 -2.59375,1.95313 h -4.92578"
       id="path7" />
    <path
       style="fill:#8a0a3a;fill-opacity:1;fill-rule:nonzero;stroke:none"
       d="m 281.25391,779.01953 c 0.57421,0.64063 1.05468,1.15234 2.17578,1.75781 1.5039,0.80078 3.03906,1.08985 4.35156,1.08985 2.23828,0 4.15625,-1.0586 4.15625,-2.625 0,-1.79297 -2.26953,-2.07813 -3.93359,-2.30469 -1.25,-0.16016 -2.4961,-0.32031 -3.71094,-0.57422 -1.375,-0.28906 -6.08203,-1.28125 -6.08203,-6.14453 0,-5.82422 5.18359,-7.55078 9.08984,-7.55078 5.21484,0 8.03125,2.52734 9.98047,4.28906 l -4.15625,2.97266 c -0.70703,-0.70313 -1.34375,-1.3086 -2.24219,-1.82422 -0.80078,-0.44531 -2.23828,-0.98828 -3.67969,-0.98828 -2.23828,0 -3.35937,1.27734 -3.35937,2.36718 0,1.72657 1.92187,1.98438 2.87891,2.10938 2.40234,0.28906 5.63281,0.89844 6.91406,1.34375 2.58984,0.96094 3.90234,2.97656 3.90234,5.53516 0,1.63281 -0.60937,3.42578 -1.79297,4.80078 -2.04687,2.36718 -5.3125,3.03906 -8.47656,3.03906 -6.37109,0 -8.89844,-2.94141 -10.30469,-4.57422 l 4.28907,-2.71875"
       id="path8" />
    <path
       style="fill:#8a0a3a;fill-opacity:1;fill-rule:nonzero;stroke:none"
       d="m 299.97266,764.26953 h 4.89453 v 5.21484 h 3.23047 v 3.00782 h -3.26172 v 7.51953 c -0.0312,1.02344 -0.0312,1.88672 1.28125,1.88672 l 1.75781,-0.0625 v 3.83984 c -1.05469,0.16016 -1.69531,0.25391 -2.58984,0.25391 -1.69922,0 -3.55469,-0.0937 -4.60938,-1.63282 -0.67187,-0.99218 -0.70312,-2.17578 -0.70312,-3.77343 v -8.0625 h -2.4336 v -3.00782 h 2.4336 v -5.18359"
       id="path9" />
    <path
       style="fill:#8a0a3a;fill-opacity:1;fill-rule:nonzero;stroke:none"
       d="m 315.84375,778.85937 c -0.83203,0.32032 -2.11328,0.80079 -2.11328,2.07813 0,0.80078 0.70312,1.69531 1.85547,1.69531 0.60937,0 1.18359,-0.22265 1.69922,-0.54297 1.6289,-1.02343 1.69531,-2.55859 1.72656,-4.28906 z m -6.23828,-5.02343 c 0.0937,-1.15235 0.2539,-2.52735 1.75781,-3.71094 1.53516,-1.21875 3.51953,-1.47266 5.47266,-1.47266 2.04687,0 7.00781,0.48047 7.00781,4.80078 v 9.72657 c 0,1.78906 0.0937,2.04687 0.48047,2.62109 h -4.83203 v -1.53516 c -1.25,0.92969 -2.65625,1.98438 -5.1211,1.98438 -3.83984,0 -5.47265,-2.75 -5.47265,-5.08594 0,-2.6914 2.14453,-4.22656 3.51953,-4.80078 1.34375,-0.57812 4.51172,-1.15234 6.59375,-1.53516 v -0.89843 c -0.0664,-0.76563 -0.12891,-2.04688 -1.88672,-2.04688 -2.17578,0 -2.46484,1.34375 -2.59375,1.95313 h -4.92578"
       id="path10" />
    <path
       style="fill:#8a0a3a;fill-opacity:1;fill-rule:nonzero;stroke:none"
       d="m 327.26562,764.26953 h 4.89844 v 5.21484 h 3.23047 v 3.00782 h -3.26172 v 7.51953 c -0.0351,1.02344 -0.0351,1.88672 1.27735,1.88672 l 1.76171,-0.0625 v 3.83984 c -1.05859,0.16016 -1.69531,0.25391 -2.59375,0.25391 -1.69531,0 -3.55078,-0.0937 -4.60546,-1.63282 -0.67188,-0.99218 -0.70704,-2.17578 -0.70704,-3.77343 v -8.0625 h -2.42968 v -3.00782 h 2.42968 v -5.18359"
       id="path11" />
    <path
       style="fill:#8a0a3a;fill-opacity:1;fill-rule:nonzero;stroke:none"
       d="m 347.90625,775.37109 c -0.0937,-0.70312 -0.22266,-1.63281 -0.92578,-2.36718 -0.60938,-0.60938 -1.53906,-0.92969 -2.40235,-0.92969 -1.18359,0 -2.01562,0.57812 -2.49609,1.08984 -0.67187,0.73438 -0.83203,1.50391 -0.99219,2.20703 z m 4.89453,6.17578 c -0.57422,0.86329 -1.15234,1.69532 -2.01562,2.4961 -1.4375,1.34375 -3.61329,2.36719 -6.30079,2.36719 -4.96093,0 -8.44921,-3.16797 -8.44921,-8.64063 0,-4.03125 1.98437,-9.21484 8.57421,-9.21484 0.99219,0 3.875,0.0976 6.01563,2.40234 2.17578,2.33203 2.30469,5.59766 2.37109,7.48438 h -11.9375 c -0.0312,2.08203 1.15235,4.16015 3.8086,4.16015 2.6875,0 3.61718,-1.75781 4.22265,-2.9414 l 3.71094,1.88671"
       id="path12" />
    <path
       style="fill:#8a0a3a;fill-opacity:1;fill-rule:nonzero;stroke:none"
       d="m 180.98828,793.21094 v 12.60937 c -0.0312,2.17578 -0.0625,4.35156 -1.30859,6.39844 -2.4336,3.90234 -7.45703,4.09766 -8.41797,4.09766 -1.69531,0 -3.71094,-0.41797 -5.2461,-1.21875 -4.35156,-2.23829 -4.35156,-6.20704 -4.32031,-9.27735 v -12.60937 h 5.69531 v 14.07812 c 0,1.15625 0.0312,2.11328 0.41407,2.81641 0.70703,1.18359 2.24218,1.53906 3.64843,1.53906 3.83985,0 3.83985,-2.625 3.8711,-4.38672 v -14.04687 h 5.66406"
       id="path13" />
    <path
       style="fill:#8a0a3a;fill-opacity:1;fill-rule:nonzero;stroke:none"
       d="m 188.51172,800.60156 c 0.47656,-0.50781 0.79687,-0.89453 1.66406,-1.30859 0.76563,-0.32031 1.85547,-0.60938 3.03906,-0.60938 0.99219,0 2.10938,0.19141 2.97266,0.67188 1.76172,0.92578 2.21094,2.42969 2.21094,5.02344 v 11.42187 H 193.5 v -9.40625 c 0,-1.50391 -0.0312,-2.04687 -0.22266,-2.49609 -0.38281,-0.89453 -1.24609,-1.28125 -2.20703,-1.28125 -2.59375,0 -2.59375,2.08203 -2.59375,4.16406 v 9.01953 h -4.92578 v -16.66797 h 4.96094 v 1.46875"
       id="path14" />
    <path
       style="fill:#8a0a3a;fill-opacity:1;fill-rule:nonzero;stroke:none"
       d="m 200.95703,799.06641 h 4.86328 v 16.73437 h -4.86328 z m 0,-5.88672 h 4.86328 v 3.80859 h -4.86328 v -3.80859"
       id="path15" />
    <path
       style="fill:#8a0a3a;fill-opacity:1;fill-rule:nonzero;stroke:none"
       d="m 207.26172,799.09766 h 5.18359 c 2.04688,7.42578 2.39844,8.96093 2.94531,12.16015 0.67188,-3.71094 0.76563,-4.125 1.75782,-8.0625 l 1.02343,-4.09765 h 5.0586 l -5.41016,16.70312 h -5.15234 l -5.40625,-16.70312"
       id="path16" />
    <path
       style="fill:#8a0a3a;fill-opacity:1;fill-rule:nonzero;stroke:none"
       d="m 235.03516,805.37109 c -0.0937,-0.70312 -0.22266,-1.63281 -0.92579,-2.36718 -0.60937,-0.60938 -1.53515,-0.92969 -2.39843,-0.92969 -1.1875,0 -2.01953,0.57812 -2.4961,1.08984 -0.67187,0.73438 -0.83203,1.50391 -0.99218,2.20703 z m 4.89843,6.17578 c -0.57812,0.86329 -1.15234,1.69532 -2.01562,2.4961 -1.44141,1.34375 -3.61719,2.36719 -6.30469,2.36719 -4.96094,0 -8.44922,-3.16797 -8.44922,-8.63672 0,-4.03516 1.98438,-9.21875 8.57813,-9.21875 0.99218,0 3.87109,0.0976 6.01562,2.40234 2.17578,2.33203 2.30469,5.59766 2.36719,7.48828 h -11.9375 c -0.0312,2.07813 1.15625,4.15625 3.80859,4.15625 2.6875,0 3.61719,-1.75781 4.22657,-2.9414 l 3.71093,1.88671"
       id="path17" />
    <path
       style="fill:#8a0a3a;fill-opacity:1;fill-rule:nonzero;stroke:none"
       d="m 246.91016,800.82812 c 1.08593,-0.92968 2.26953,-1.66406 4.83203,-1.92187 v 4.35547 l -1.63282,0.2539 c -2.36718,0.41407 -3.07421,0.76563 -3.07421,2.87891 v 9.40625 h -4.92579 v -16.73437 h 4.80079 v 1.76171"
       id="path18" />
    <path
       style="fill:#8a0a3a;fill-opacity:1;fill-rule:nonzero;stroke:none"
       d="m 254.71875,810.17187 c 1.34375,1.3086 3.00781,2.30079 4.86328,2.30079 1.18359,0 2.97656,-0.38282 2.97656,-1.62891 0,-0.57813 -0.35547,-0.80078 -0.64062,-0.96094 -0.73828,-0.38281 -1.89063,-0.48047 -2.84766,-0.64062 -0.73828,-0.12891 -1.5039,-0.28516 -2.24219,-0.51172 -1.02343,-0.28516 -2.04687,-0.70313 -2.78125,-1.44141 -0.73828,-0.73437 -1.25,-1.88672 -1.25,-3.13281 0,-2.75391 2.36719,-5.60156 7.03907,-5.60156 3.9375,0 6.30468,1.69922 7.45703,2.49609 l -3.03906,2.81641 c -1.57032,-1.21485 -3.03907,-1.66407 -4.19141,-1.66407 -1.92188,0 -2.37109,0.76954 -2.37109,1.25 0,0.95704 1.05859,1.14844 2.65625,1.4375 3.36328,0.60938 7.26562,1.50391 7.26562,5.47266 0,3.93359 -3.96875,5.85547 -7.90234,5.85547 -4.64063,0 -7.04297,-2.24219 -8.09766,-3.23438 l 3.10547,-2.8125"
       id="path19" />
    <path
       style="fill:#8a0a3a;fill-opacity:1;fill-rule:nonzero;stroke:none"
       d="m 269.14844,799.06641 h 4.86328 v 16.73437 h -4.86328 z m 0,-5.88672 h 4.86328 v 3.80859 h -4.86328 v -3.80859"
       id="path20" />
    <path
       style="fill:#8a0a3a;fill-opacity:1;fill-rule:nonzero;stroke:none"
       d="m 278.17187,794.26953 h 4.89844 v 5.21484 h 3.23047 v 3.00782 h -3.26562 v 7.51953 c -0.0312,1.02344 -0.0312,1.88672 1.28125,1.88672 l 1.76171,-0.0625 v 3.83984 c -1.05859,0.16016 -1.69921,0.25391 -2.59375,0.25391 -1.69531,0 -3.55078,-0.0937 -4.60546,-1.63282 -0.67579,-0.99218 -0.70704,-2.17578 -0.70704,-3.77343 v -8.0625 h -2.42968 v -3.00782 h 2.42968 v -5.18359"
       id="path21" />
    <path
       style="fill:#8a0a3a;fill-opacity:1;fill-rule:nonzero;stroke:none"
       d="m 303.45312,799.09766 -5.88671,18.05078 c -0.38672,1.08593 -0.73829,2.10937 -1.57032,3.03906 -1.15234,1.24609 -2.26953,1.30859 -3.55078,1.34375 h -3.55078 V 817.625 h 1.72656 c 0.80078,-0.0312 2.04688,-0.0312 2.04688,-1.21484 0,-0.41797 -0.12891,-0.83204 -0.22266,-1.1836 l -4.99219,-16.1289 h 5.2461 l 2.7539,11.96875 2.75,-11.96875 h 5.25"
       id="path22" />
    <path
       style="fill:#8a0a3a;fill-opacity:1;fill-rule:nonzero;stroke:none"
       d="m 47.203125,796.51953 5.347656,-21.59375 5.363281,21.59375 z m 102.835935,18.83594 c 0,0 -0.86328,-0.95703 -2.29687,-2.50391 -1.76953,-1.90625 -1.67578,-3.92578 -1.67578,-3.92578 v -45.71875 h -17.30469 v 36.56641 c -0.21094,3.46093 -3.59375,4.33984 -5.46094,4.27734 -2.68359,-0.082 -4.24609,-1.59375 -4.24609,-4.17578 v -36.66797 h -16.85156 c 0,0 -7.035161,0.0117 -11.871099,0.0117 -9.226562,0 -17.929687,1.41797 -20.875,9.09375 L 67.71875,765.5156 c -0.425781,-1.35156 -1.875,-2.30859 -3.324219,-2.30859 H 34.277344 c -0.4375,0 -0.601563,0.14063 -0.378906,0.44922 0,0 0.820312,0.78125 2.304687,2.48437 2.0625,2.35547 1.257813,5.4961 1.257813,5.4961 l -11.035157,44.15625 h 16.058594 l 2.308594,-9.69531 h 15.5 l 2.414062,9.69531 c 0,0 19.773438,0 21.144531,0 8.679688,0 15.738282,-0.88672 19.214848,-6.30078 2.60547,4.9414 8.20703,7.26172 18.08984,6.41015 3.44531,-0.29687 6.8125,-1.90234 8.25781,-4.47265 l 0.6836,2.1289 c 0.5664,1.29297 1.75,2.23828 3.43359,2.23828 h 16.14844 c 0.4414,0 0.58203,-0.13281 0.35937,-0.4414"
       id="path23" />
    <path
       style="fill:#8a0a3a;fill-opacity:1;fill-rule:nonzero;stroke:none"
       d="M 150.1875,764.48437 V 765.25 h 0.15625 c 0.15625,0 0.21484,-0.004 0.30078,-0.008 0.10156,-0.004 0.42969,-0.0195 0.42969,-0.37891 0,-0.0508 -0.004,-0.23047 -0.19141,-0.32812 -0.0977,-0.0469 -0.21484,-0.0508 -0.48437,-0.0508 z m -0.45313,-0.39453 h 0.77735 c 0.32422,0.004 0.54297,0.004 0.75781,0.17578 0.15234,0.125 0.26953,0.32032 0.26953,0.60157 0,0.46875 -0.34375,0.6289 -0.48047,0.67187 l 0.54297,0.99219 h -0.52344 l -0.48437,-0.90625 h -0.40625 v 0.90625 h -0.45313 z m 0.8086,-0.95312 c -1.1875,0 -2.19531,0.93359 -2.19531,2.19922 0,1.30078 1.05078,2.19531 2.19531,2.19531 1.23828,0 2.19531,-0.96875 2.20312,-2.18359 0.008,-1.20704 -0.92578,-2.21094 -2.20312,-2.21094 z m 0.004,4.14062 c -1.07421,0 -1.9414,-0.85156 -1.9414,-1.9414 0,-1.07032 0.85156,-1.94532 1.94922,-1.94532 1.10937,0 1.9414,0.88672 1.93359,1.94922 -0.004,1.07813 -0.84375,1.9375 -1.94141,1.9375"
       id="path24" />
    <path
       style="fill:#fac521;fill-opacity:1;fill-rule:nonzero;stroke:none"
       d="m 69.027344,774.38281 c -0.09766,0.47266 -0.210938,1.10938 -0.28125,1.5625 l -3.011719,-2.79687 c -0.292969,-0.27344 0.05469,-0.73047 0.394531,-0.52344 l 2.898438,1.75781"
       id="path25" />
    <path
       style="fill:#fac521;fill-opacity:1;fill-rule:nonzero;stroke:none"
       d="m 68.605469,778.50391 c -0.0039,0.64843 0.02734,1.52343 0.09766,2.18359 l -5.835937,-3.80078 c -0.324219,-0.21094 -0.06641,-0.71485 0.296874,-0.57031 l 5.441407,2.1875"
       id="path26" />
    <path
       style="fill:#fac521;fill-opacity:1;fill-rule:nonzero;stroke:none"
       d="m 69.953125,785.03125 c -0.40625,-0.79297 -0.773437,-1.84375 -0.984375,-2.80469 l -8.007812,-1.80469 c -0.375,-0.0859 -0.546876,0.44532 -0.195313,0.59766 l 9.1875,4.01172"
       id="path27" />
    <path
       style="fill:#fac521;fill-opacity:1;fill-rule:nonzero;stroke:none"
       d="m 70.195312,785.48828 c 2.707032,4.94531 8.417969,6.91406 13.433594,8.65625 4.882813,1.67578 9.082032,3.13281 9.082032,6.89453 0,1.00391 -0.40625,1.89063 -1.210938,2.6211 -1.546875,1.41015 -4.375,2.09375 -7.484375,1.79687 -1.753906,-0.16406 -3.59375,-1.07422 -3.59375,-1.07422 l -6.480469,8.03516 c -0.257812,0.32031 -0.757812,0 -0.574218,-0.36719 l 4.441406,-8.92969 c 0.05078,-0.10547 -0.07813,-0.20703 -0.167969,-0.1289 l -7.878906,6.85937 c -0.308594,0.26563 -0.734375,-0.13281 -0.492188,-0.45703 l 6.109375,-8.11328 c 0.06641,-0.0898 -0.03906,-0.20703 -0.132812,-0.14844 l -9.128906,5.55078 c -0.335938,0.20313 -0.683594,-0.2539 -0.394532,-0.52343 l 7.625,-7.07422 c 0.07422,-0.0703 -0.0039,-0.19141 -0.101562,-0.15625 l -10.082032,4.05078 c -0.363281,0.14844 -0.621093,-0.35547 -0.296874,-0.57031 l 8.875,-5.77735 c 0.08984,-0.0547 0.03125,-0.1914 -0.07031,-0.16797 l -10.710937,2.41407 c -0.375,0.0859 -0.546876,-0.44532 -0.195313,-0.60157 l 9.910156,-4.32812 c 0.08984,-0.0391 0.05859,-0.17188 -0.03906,-0.16406 l -11.019531,0.70703 c -0.382813,0.0234 -0.46875,-0.52735 -0.09766,-0.6211 l 10.59375,-2.71484 c 0.09375,-0.0234 0.08203,-0.16406 -0.01563,-0.17188 l -10.992187,-1.02343 c -0.378907,-0.0352 -0.378907,-0.58594 0,-0.6211 l 11.015625,-1.02734 c 0.09375,-0.0117 0.105468,-0.14063 0.01563,-0.16016 l -10.617188,-2.72265 c -0.371093,-0.0977 -0.285156,-0.64453 0.09766,-0.6211 l 10.578124,0.67969"
       id="path28" />
    <path
       style="fill:#fac521;fill-opacity:1;fill-rule:nonzero;stroke:none"
       d="m 104.08594,807.68359 c 0,0 0.36328,-0.88672 0.55469,-1.51172 l 2.42968,3.23438 c 0.2461,0.32031 -0.18359,0.71875 -0.48437,0.45312 l -2.5,-2.17578"
       id="path29" />
    <path
       style="fill:#fac521;fill-opacity:1;fill-rule:nonzero;stroke:none"
       d="m 105.20703,803.64062 c 0,0 0.19922,-1.46484 0.23828,-2.26953 l 5.16407,4.78907 c 0.28906,0.26953 -0.0547,0.72656 -0.39454,0.52343 l -5.00781,-3.04297"
       id="path30" />
    <path
       style="fill:#fac521;fill-opacity:1;fill-rule:nonzero;stroke:none"
       d="m 105.50391,799.90234 c 0,0 0.0195,-1.78906 -0.1836,-2.79687 l 8.13282,5.29687 c 0.32812,0.21485 0.0664,0.71875 -0.29688,0.57422 l -7.65234,-3.07422"
       id="path31" />
    <path
       style="fill:#fac521;fill-opacity:1;fill-rule:nonzero;stroke:none"
       d="m 105.23047,796.59375 c 0,0 -0.41406,-4.54297 -5.664064,-8.16406 -2.742187,-1.89063 -6.089844,-3.15625 -9.035156,-4.27735 -2.257812,-0.85156 -4.386719,-1.66797 -5.925781,-2.6289 -1.714844,-1.08985 -2.519531,-2.25782 -2.519531,-3.67578 0,-1.04297 0.34375,-1.90625 1.03125,-2.57813 1.183593,-1.16016 3.335937,-1.67969 6.242187,-1.65625 3.125,0.0234 6.433594,1.42969 6.433594,1.42969 l 6.597661,-8.16016 c 0.25781,-0.32031 0.75781,0 0.57421,0.36719 l -4.488278,9.02344 c -0.04297,0.0859 0.0625,0.16797 0.136719,0.10547 l 7.972659,-6.94141 c 0.30078,-0.26172 0.73047,0.13281 0.48437,0.45703 l -6.16015,8.18359 c -0.0547,0.0781 0.0312,0.17579 0.11328,0.125 l 9.16797,-5.57031 c 0.33984,-0.21094 0.6914,0.25391 0.39843,0.52344 l -7.6289,7.08203 c -0.0742,0.0664 0,0.17969 0.0898,0.14453 l 10.10547,-4.05859 c 0.36328,-0.14844 0.625,0.35547 0.29688,0.57031 l -8.89454,5.79297 c -0.082,0.0508 -0.0312,0.17578 0.0625,0.15625 l 10.75,-2.42188 c 0.375,-0.0859 0.55079,0.44532 0.19532,0.59766 l -9.91016,4.32813 c -0.0898,0.0391 -0.0547,0.17187 0.0391,0.16796 l 11.00782,-0.70703 c 0.38281,-0.0234 0.46875,0.52735 0.0977,0.625 l -10.57812,2.71094 c -0.0937,0.0234 -0.0859,0.16016 0.0117,0.16797 l 10.98046,1.02344 c 0.37891,0.0351 0.37891,0.58984 0,0.625 l -10.98046,1.02343 c -0.0977,0.008 -0.10547,0.14844 -0.0117,0.17188 l 10.57812,2.71094 c 0.3711,0.0937 0.28516,0.64843 -0.0977,0.62109 l -11.00782,-0.70312 c -0.0937,-0.008 -0.1289,0.125 -0.0391,0.16406 l 9.91016,4.32812 c 0.35547,0.15625 0.17968,0.6875 -0.19532,0.60157 l -10.14062,-2.28516"
       id="path32" />
  </g>
</svg>
